<?xml version="1.0" standalone="no"?>
<!DOCTYPE svg PUBLIC "-//W3C//DTD SVG 20010904//EN"
 "http://www.w3.org/TR/2001/REC-SVG-20010904/DTD/svg10.dtd">
<svg version="1.0" xmlns="http://www.w3.org/2000/svg"
 width="260.000000pt" height="260.000000pt" viewBox="0 0 260.000000 260.000000"
 preserveAspectRatio="xMidYMid meet">
<metadata>
Created by potrace 1.14, written by Peter Selinger 2001-2017
</metadata>
<g transform="translate(0.000000,260.000000) scale(0.100000,-0.100000)"
fill="#000000" stroke="none">
<path d="M0 1300 l0 -1300 1300 0 1300 0 0 1300 0 1300 -1300 0 -1300 0 0
-1300z m555 574 c9 -4 157 -189 328 -413 l312 -406 3 413 2 412 65 0 65 0 0
-540 0 -540 -54 0 -55 0 -313 410 c-172 225 -315 409 -318 410 -3 0 -4 -184
-2 -410 l2 -410 -65 0 -65 0 0 540 0 540 39 0 c22 0 47 -3 56 -6z m1772 -11
c3 -9 2 -32 -4 -52 -5 -20 -140 -220 -311 -459 -166 -233 -302 -425 -302 -428
0 -2 137 -4 305 -4 l305 0 0 -60 0 -60 -405 0 -405 0 0 43 c1 39 22 72 305
469 168 235 305 430 305 433 0 3 -130 5 -290 5 l-290 0 0 65 0 65 390 0 c354
0 391 -2 397 -17z"/>
</g>
</svg>
